TITLE ""
FILE "1Q_t_0449-0458.mp3" MP3
  TRACK 01 AUDIO
    TITLE "1Q_t_0449-0458_01"
    INDEX 01 00:00:00
  TRACK 02 AUDIO
    TITLE "1Q_t_0449-0458_02"
    INDEX 01 00:01:23
  TRACK 03 AUDIO
    TITLE "1Q_t_0449-0458_03"
    INDEX 01 00:01:41
  TRACK 04 AUDIO
    TITLE "1Q_t_0449-0458_04"
    INDEX 01 00:03:34
  TRACK 05 AUDIO
    TITLE "1Q_t_0449-0458_05"
    INDEX 01 00:03:48
  TRACK 06 AUDIO
    TITLE "1Q_t_0449-0458_06"
    INDEX 01 00:08:73
  TRACK 07 AUDIO
    TITLE "1Q_t_0449-0458_07"
    INDEX 01 00:09:48
  TRACK 08 AUDIO
    TITLE "1Q_t_0449-0458_08"
    INDEX 01 00:11:02
  TRACK 09 AUDIO
    TITLE "1Q_t_0449-0458_09"
    INDEX 01 00:11:18
  TRACK 10 AUDIO
    TITLE "1Q_t_0449-0458_10"
    INDEX 01 00:13:11
  TRACK 11 AUDIO
    TITLE "1Q_t_0449-0458_11"
    INDEX 01 00:13:25
  TRACK 12 AUDIO
    TITLE "1Q_t_0449-0458_12"
    INDEX 01 00:18:73
  TRACK 13 AUDIO
    TITLE "1Q_t_0449-0458_13"
    INDEX 01 00:19:53
  TRACK 14 AUDIO
    TITLE "1Q_t_0449-0458_14"
    INDEX 01 00:20:44
  TRACK 15 AUDIO
    TITLE "1Q_t_0449-0458_15"
    INDEX 01 00:20:60
  TRACK 16 AUDIO
    TITLE "1Q_t_0449-0458_16"
    INDEX 01 00:21:59
  TRACK 17 AUDIO
    TITLE "1Q_t_0449-0458_17"
    INDEX 01 00:21:75
  TRACK 18 AUDIO
    TITLE "1Q_t_0449-0458_18"
    INDEX 01 00:27:40
  TRACK 19 AUDIO
    TITLE "1Q_t_0449-0458_19"
    INDEX 01 00:28:20
  TRACK 20 AUDIO
    TITLE "1Q_t_0449-0458_20"
    INDEX 01 00:29:35
  TRACK 21 AUDIO
    TITLE "1Q_t_0449-0458_21"
    INDEX 01 00:29:51
  TRACK 22 AUDIO
    TITLE "1Q_t_0449-0458_22"
    INDEX 01 00:33:14
  TRACK 23 AUDIO
    TITLE "1Q_t_0449-0458_23"
    INDEX 01 00:33:27
  TRACK 24 AUDIO
    TITLE "1Q_t_0449-0458_24"
    INDEX 01 00:38:30
  TRACK 25 AUDIO
    TITLE "1Q_t_0449-0458_25"
    INDEX 01 00:39:10
  TRACK 26 AUDIO
    TITLE "1Q_t_0449-0458_26"
    INDEX 01 00:40:16
  TRACK 27 AUDIO
    TITLE "1Q_t_0449-0458_27"
    INDEX 01 00:40:31
  TRACK 28 AUDIO
    TITLE "1Q_t_0449-0458_28"
    INDEX 01 00:42:38
  TRACK 29 AUDIO
    TITLE "1Q_t_0449-0458_29"
    INDEX 01 00:42:54
  TRACK 30 AUDIO
    TITLE "1Q_t_0449-0458_30"
    INDEX 01 00:48:35
  TRACK 31 AUDIO
    TITLE "1Q_t_0449-0458_31"
    INDEX 01 00:49:11
  TRACK 32 AUDIO
    TITLE "1Q_t_0449-0458_32"
    INDEX 01 00:50:08
  TRACK 33 AUDIO
    TITLE "1Q_t_0449-0458_33"
    INDEX 01 00:50:26
  TRACK 34 AUDIO
    TITLE "1Q_t_0449-0458_34"
    INDEX 01 00:51:31
  TRACK 35 AUDIO
    TITLE "1Q_t_0449-0458_35"
    INDEX 01 00:51:45
  TRACK 36 AUDIO
    TITLE "1Q_t_0449-0458_36"
    INDEX 01 00:58:10
  TRACK 37 AUDIO
    TITLE "1Q_t_0449-0458_37"
    INDEX 01 00:58:63
  TRACK 38 AUDIO
    TITLE "1Q_t_0449-0458_38"
    INDEX 01 00:59:70
  TRACK 39 AUDIO
    TITLE "1Q_t_0449-0458_39"
    INDEX 01 01:00:12
  TRACK 40 AUDIO
    TITLE "1Q_t_0449-0458_40"
    INDEX 01 01:02:06
  TRACK 41 AUDIO
    TITLE "1Q_t_0449-0458_41"
    INDEX 01 01:02:19
  TRACK 42 AUDIO
    TITLE "1Q_t_0449-0458_42"
    INDEX 01 01:09:06
  TRACK 43 AUDIO
    TITLE "1Q_t_0449-0458_43"
    INDEX 01 01:09:62
  TRACK 44 AUDIO
    TITLE "1Q_t_0449-0458_44"
    INDEX 01 01:10:68
  TRACK 45 AUDIO
    TITLE "1Q_t_0449-0458_45"
    INDEX 01 01:11:10
  TRACK 46 AUDIO
    TITLE "1Q_t_0449-0458_46"
    INDEX 01 01:12:16
  TRACK 47 AUDIO
    TITLE "1Q_t_0449-0458_47"
    INDEX 01 01:12:29
  TRACK 48 AUDIO
    TITLE "1Q_t_0449-0458_48"
    INDEX 01 01:18:30
  TRACK 49 AUDIO
    TITLE "1Q_t_0449-0458_49"
    INDEX 01 01:19:06
  TRACK 50 AUDIO
    TITLE "1Q_t_0449-0458_50"
    INDEX 01 01:20:45
  TRACK 51 AUDIO
    TITLE "1Q_t_0449-0458_51"
    INDEX 01 01:20:62
  TRACK 52 AUDIO
    TITLE "1Q_t_0449-0458_52"
    INDEX 01 01:24:09
  TRACK 53 AUDIO
    TITLE "1Q_t_0449-0458_53"
    INDEX 01 01:24:23
  TRACK 54 AUDIO
    TITLE "1Q_t_0449-0458_54"
    INDEX 01 01:30:37
  TRACK 55 AUDIO
    TITLE "1Q_t_0449-0458_55"
    INDEX 01 01:31:15
  TRACK 56 AUDIO
    TITLE "1Q_t_0449-0458_56"
    INDEX 01 01:32:14
  TRACK 57 AUDIO
    TITLE "1Q_t_0449-0458_57"
    INDEX 01 01:32:30
  TRACK 58 AUDIO
    TITLE "1Q_t_0449-0458_58"
    INDEX 01 01:33:45
  TRACK 59 AUDIO
    TITLE "1Q_t_0449-0458_59"
    INDEX 01 01:33:59
  TRACK 60 AUDIO
    TITLE "1Q_t_0449-0458_60"
    INDEX 01 01:40:10
